<?xml version="1.0" standalone="no"?>
<!DOCTYPE svg PUBLIC "-//W3C//DTD SVG 20010904//EN"
 "http://www.w3.org/TR/2001/REC-SVG-20010904/DTD/svg10.dtd">
<svg version="1.0" xmlns="http://www.w3.org/2000/svg"
 width="316.000000pt" height="316.000000pt" viewBox="0 0 316.000000 316.000000"
 preserveAspectRatio="xMidYMid meet">
<metadata>
Created by potrace 1.14, written by Peter Selinger 2001-2017
</metadata>
<g transform="translate(0.000000,316.000000) scale(0.100000,-0.100000)"
fill="#000000" stroke="none">
<path d="M1383 3104 c-54 -12 -122 -31 -151 -43 -76 -30 -172 -82 -172 -92 0
-5 -5 -9 -11 -9 -13 0 -123 -93 -158 -134 -14 -15 -29 -33 -35 -40 -19 -19
-66 -95 -66 -105 0 -5 -4 -11 -8 -13 -9 -3 -61 -123 -67 -153 -2 -11 -4 -20
-5 -20 -3 0 -27 -100 -34 -145 -19 -111 -26 -391 -12 -442 9 -31 -3 -37 -28
-13 -18 18 -47 19 -68 3 -26 -21 -37 -74 -33 -156 3 -68 37 -262 49 -281 3 -4
-29 -8 -70 -8 -127 -2 -133 -16 -119 -283 15 -287 27 -508 30 -550 2 -33 -27
-99 -61 -139 -8 -9 -14 -19 -14 -24 0 -4 -6 -20 -14 -35 -13 -25 -61 -180 -70
-228 -2 -10 -7 -30 -10 -44 -6 -24 -10 -47 -22 -117 l-5 -33 1356 0 1357 0 -6
40 c-19 135 -87 390 -111 414 -8 8 -15 18 -15 23 0 5 -11 24 -24 44 -16 24
-23 46 -21 69 2 19 6 105 10 190 3 85 8 173 10 195 3 22 7 105 11 185 4 80 7
161 9 180 2 43 -18 85 -48 101 -12 7 -50 12 -84 11 -61 -1 -62 -1 -54 22 5 12
12 38 15 57 5 32 8 46 23 114 12 56 8 189 -6 223 -16 39 -50 51 -83 28 -31
-22 -38 -20 -38 9 0 14 5 25 10 25 19 0 -2 391 -25 470 -2 8 -6 26 -9 40 -8
43 -52 163 -81 220 -50 100 -134 195 -258 295 -35 28 -207 118 -207 108 0 -3
-7 1 -17 8 -9 8 -18 13 -20 12 -1 -2 -4 -3 -5 -2 -2 0 -10 2 -18 4 -8 2 -25 6
-37 9 -29 8 -60 15 -98 23 -16 3 -87 7 -157 7 -100 2 -149 -3 -225 -20z"/>
</g>
</svg>
